# xmcd
#
# Track frame offsets: 
#        150
#        14288
#        35678
#        52813
#        66470
#        82748
#        103209
#        117172
#        128167
#        144548
#        159259
#        188363
#
# Disc length: 2657 seconds
#
# Revision: 0
# Processed by: cddbd v1.5.2PL0 Copyright (c) Steve Scherf et al.
# Submitted via: ExactAudioCopyFreeDBPlugin 1.0
#
DISCID=950a5f0c
DTITLE=The Leisure Society - Alone abroard the ark
DYEAR=2011
DGENRE=Folk
TTITLE0=Another sunday psalm
TTITLE1=A softer voice takes longer hearing
TTITLE2=Fight for everyone
TTITLE3=Tearing the arches down
TTITLE4=The sober scent of paper
TTITLE5=All I have seen
TTITLE6=Everyone understands
TTITLE7=Life is a cabriolet
TTITLE8=One man and his fug
TTITLE9=Forever shall we wait
TTITLE10=We go together
TTITLE11=The last in a long line
EXTD=
EXTT0=
EXTT1=
EXTT2=
EXTT3=
EXTT4=
EXTT5=
EXTT6=
EXTT7=
EXTT8=
EXTT9=
EXTT10=
EXTT11=
PLAYORDER=
